<?xml version="1.0" encoding="UTF-8"?>
<svg width="1200pt" height="1200pt" version="1.1" viewBox="0 0 1200 1200" xmlns="http://www.w3.org/2000/svg">
 <path d="m1137.3 299.24c-0.85156-8.2188-5.4102-15.348-12.227-19.078-6.707-3.6953-14.711-3.707-21.926-0.097656-32.004 15.984-56.832 36.336-77.398 63.574-103.67-42.949-252.14-56.242-359.04 8.5078-16.055-22.379-32.09-44.773-48.035-67.234-5.5078-7.7656-15.504-11.676-24.926-9.8281-8.6992 1.7539-15.059 8.0273-17.027 16.789-17.461 77.797-18.684 161.09-3.6602 236.66-95.195-17.902-170.2-13.355-227.93 13.836 10.969-40.871 10.43-76.402-1.4141-110.07-8.3984-23.879-21.742-45.695-38.578-63.098-11.328-11.711-25.715-20.578-39.637-29.16-34.906-21.516-55.969-36.684-49.402-75.84 1.8359-11.027-4.1992-22.598-14.352-27.492-9.3359-4.5234-19.609-2.3984-26.785 5.5312-68.988 76.152-134.28 158.86-109.61 258.72 19.188 77.652 86.41 133.63 185.28 154.88-5.4961 26.746-2.3633 53.051 9.2266 76.727 12.84 26.219 35.953 48.383 68.785 65.953-10.391 31.199-22.031 68.184-25.57 102.85-1.1055 10.738 5.0039 19.668 15.191 22.211 11.426 2.8906 23.688-3.2031 27.996-13.789 11.914-29.23 18.574-63.48 23.664-93.312 19.609 6.8516 41.281 12.457 64.715 16.754-3.3242 22.234-7.9336 44.387-12.422 65.902-2.6641 12.758-5.3164 25.523-7.7539 38.438-2.3633 12.492 5.0742 24.227 17.281 27.312 1.9805 0.49219 3.9492 0.73047 5.8555 0.73047 9.7578 0 18.312-6.2148 21.504-16.273 9.5742-30.191 14.914-65.508 16.633-110.35 29.41 2.7109 58.98 2.3398 88.188-1.1523-0.55078 28.883-0.625 58.367 3.0469 86.652 1.6328 12.59 12.289 21.672 24.828 20.93 11.977-0.625 20.555-9.7305 20.855-22.141 0.76953-30.551-2.9023-62.039-6.7578-92.699 15.254-3.4688 30.469-7.8828 45.445-13.176 2.9414 14.375 5.2578 28.703 7.6797 43.668 1.4648 9.0859 2.9414 18.191 4.5703 27.395 2.0898 11.797 12.66 19.332 25.152 17.914 12.672-1.4141 21.793-11.594 21.215-23.652-1.1523-24.133-7.5586-51.562-19.055-81.707 14.148-6.7305 27.781-14.172 40.547-22.129 15.434 9.8516 31.633 18.383 48.312 25.43 1.6328 10.656 6.8984 20.664 15.086 28.32 16.008 14.965 41.398 20.711 63.215 14.27 13.234-3.8984 22.801-13.68 27.023-27.059 28.078-2.8906 63.48-45.203 100.29-92.52 5.3047-6.8047 9.5391-12.277 12.254-15.383 34.273-39.227 63.098-81.949 85.645-126.97 45.957-91.809 64.137-187.94 54.023-285.74zm-808.97 590.23c3.457-21.121 9.6133-43.094 16.078-63.574-3.875 21.082-8.8047 43.461-16.078 63.574zm110.48 45.719c2.0391-10.465 4.2109-20.867 6.3711-31.246 0.89844-4.3555 1.8125-8.7227 2.7227-13.129-2.2188 16.199-5.2305 30.828-9.0938 44.375zm148.39-60.766c1.1523 12.828 1.9453 25.633 2.0273 38.242-1.2461-12.457-1.8242-25.262-2.0273-38.242zm99.266 8.5898c-1.5117-8.6172-2.8906-17.16-4.2734-25.668-0.76953-4.7383-1.5352-9.5273-2.3281-14.34 3.7344 14.34 5.9414 27.707 6.6016 40.008zm-15.324-98.723c-3.0469 1.3555-5.2422 3.8398-6.2891 6.7695-2.8906-1.332-6.2031-1.4531-9.2031-0.28906-21.277 8.3164-43.152 14.734-65.016 19.094-3.2383 0.63672-5.9141 2.5664-7.5859 5.1602-2.5195-1.9219-5.7461-2.7344-8.8789-2.2578-35.746 5.4961-72.203 6.0117-108.34 1.5586-0.48047-0.058593-0.96094-0.097656-1.4414-0.097656-2.5547 0-5.0625 0.83984-7.1172 2.4102-1.7656-2.3984-4.4297-4.1172-7.5703-4.6211-31.789-5.125-60.266-12.66-84.648-22.391-3.3008-1.3086-7.0195-1.0664-10.117 0.67188-0.14453 0.085937-0.27734 0.15625-0.40625 0.23828-0.66016-3.5625-2.9648-6.7578-6.4336-8.4375-32.914-15.926-55.512-36.047-67.152-59.832-10.738-21.938-12.348-46.871-4.668-72.109 0.97266-3.1914 0.53906-6.6719-1.2109-9.5273-1.7383-2.8672-4.6328-4.8359-7.9336-5.4492-45.469-8.2305-153.94-38.352-179.02-139.86-21.84-88.391 39.109-165.39 103.99-237 0.48047 0.52734 0.92578 1.3555 0.81641 2.0039-9.4922 56.723 29.172 80.555 60.238 99.707 13.273 8.1719 25.801 15.898 35.074 25.488 14.508 14.988 26.016 33.863 33.312 54.574 12.648 35.941 10.152 75.098-7.8359 123.21-1.7891 4.7891-0.27734 10.176 3.7305 13.344 4.0195 3.1445 9.6016 3.3594 13.836 0.49219l3.0352-2.1016c57-36.168 137.06-43.199 244.61-21.457 0.5625 2.1719 1.2109 4.6914 1.8594 7.1992 1.7031 6.625 2.9023 11.242 4.0547 14.508l-0.15625 0.046875c19.199 63.203 70.117 137.58 127.43 187.84-13.039 7.7305-26.766 14.801-40.973 21.113zm391.13-209.83c-21.66 43.262-49.355 84.312-82.332 122.04-2.9023 3.3242-7.4414 9.1445-13.105 16.414-63.949 82.223-81.312 85.789-85.848 83.375-3.5273-1.8008-7.7148-1.7148-11.125 0.23828-3.4453 1.9453-5.6641 5.4961-5.9297 9.4219-0.38281 5.6289-2.5078 15.504-12.516 18.457-13.68 4.0195-30.707 0.28906-40.535-8.9023-5.3984-5.0391-8.375-11.941-8.1602-18.91 0.14453-4.9453-2.8203-9.457-7.4141-11.281-17.773-7.0078-35.004-15.828-51.312-26.258-60.73-46.871-116.98-125.16-136.82-190.52-0.085937-0.26562-0.17969-0.52734-0.27734-0.79297-0.55078-1.8594-1.9453-7.3086-3.3594-12.805-1.5234-5.9141-2.6289-10.188-3.625-13.32-0.035156-0.25391-0.097656-0.50391-0.14453-0.75781-18.047-76.285-18.203-162.32-0.42187-242.51 0.085937 0.058594 0.15625 0.10938 0.19141 0.15625 18.336 25.812 36.781 51.539 55.223 77.281l0.76953 1.0664c2.9023 4.0547 8.0742 5.8203 12.84 4.4297 3.6836-1.0938 6.5273-3.8633 7.7656-7.3555 101.17-63.098 249.48-47.809 345.45-6.5508 0.058594 0.058594 0.15625 0.13281 0.28906 0.26562 2.5312 2.1133 5.7969 3.0469 9.1211 2.6406 3.2773-0.44531 6.2031-2.2422 8.0898-4.9805 19.379-28.078 43.066-48.492 74.879-63.637 9.6367 93.266-7.7539 185.05-51.684 272.8z"/>
</svg>
